<?xml version="1.0" standalone="no"?>
<!DOCTYPE svg PUBLIC "-//W3C//DTD SVG 20010904//EN"
 "http://www.w3.org/TR/2001/REC-SVG-20010904/DTD/svg10.dtd">
<svg version="1.0" xmlns="http://www.w3.org/2000/svg"
 width="700.000000pt" height="700.000000pt" viewBox="0 0 700.000000 700.000000"
 preserveAspectRatio="xMidYMid meet">
<metadata>
Created by potrace 1.11, written by Peter Selinger 2001-2013
</metadata>
<g transform="translate(0.000000,700.000000) scale(0.100000,-0.100000)"
fill="#000000" stroke="none">
<path d="M5738 6864 c-2 -1 -30 -4 -63 -5 -97 -5 -173 -26 -290 -84 -283 -137
-574 -380 -806 -675 -242 -307 -411 -629 -436 -830 -31 -261 -21 -390 53 -685
10 -38 4 -130 -12 -185 -21 -73 -56 -140 -122 -235 -53 -76 -439 -585 -452
-595 -4 -3 -25 -31 -49 -62 -23 -32 -46 -58 -51 -58 -17 0 -373 488 -443 608
-92 157 -141 306 -221 672 -72 326 -128 479 -230 630 -102 151 -619 781 -820
1000 -41 44 -212 234 -251 279 -98 111 -197 203 -207 193 -17 -17 -2 -53 68
-158 52 -77 311 -427 381 -514 263 -330 583 -804 583 -864 0 -25 -57 26 -145
129 -33 39 -64 75 -70 81 -5 6 -23 28 -40 50 -16 21 -43 54 -60 75 -16 20 -42
52 -57 70 -27 34 -272 348 -316 406 -12 16 -33 43 -46 59 -31 38 -144 181
-176 224 -28 37 -72 92 -80 100 -3 3 -32 39 -65 80 -72 88 -135 151 -147 144
-15 -9 -1 -65 32 -127 41 -79 107 -177 255 -377 67 -91 150 -205 184 -254 35
-50 118 -164 184 -255 169 -231 328 -460 351 -503 17 -30 18 -41 8 -62 -17
-37 -57 -35 -94 7 -42 45 -541 714 -781 1047 -58 80 -113 154 -124 165 -10 11
-31 37 -47 58 -66 89 -162 165 -182 144 -15 -15 75 -158 390 -620 138 -203
256 -376 261 -385 21 -34 110 -167 115 -172 13 -11 185 -292 212 -343 51 -100
-20 -48 -154 112 -139 167 -252 317 -416 556 -344 499 -502 709 -544 724 -59
21 -40 -20 202 -434 136 -232 133 -228 309 -513 144 -234 386 -600 459 -697
64 -84 175 -190 269 -257 43 -32 173 -113 289 -181 319 -188 383 -233 513
-360 76 -75 337 -418 498 -657 l31 -45 -41 -50 c-45 -54 -348 -407 -357 -415
-3 -3 -32 -36 -65 -75 -33 -38 -64 -75 -70 -81 -10 -12 -23 -26 -140 -159 -38
-44 -89 -100 -112 -125 -23 -25 -51 -56 -63 -70 -34 -39 -125 -142 -151 -171
-63 -68 -180 -198 -210 -234 -19 -22 -43 -49 -54 -60 -11 -11 -50 -54 -85 -95
-36 -41 -72 -81 -80 -90 -60 -64 -314 -360 -425 -495 -55 -66 -105 -126 -112
-133 -24 -24 -140 -196 -171 -252 -31 -58 -79 -170 -87 -205 -2 -11 -9 -38
-14 -59 -9 -38 -8 -148 2 -192 21 -86 73 -151 147 -183 62 -27 111 -30 184
-14 104 24 217 93 335 206 106 102 339 439 554 802 71 121 214 362 317 535
103 173 246 414 317 535 113 191 378 620 493 798 l38 58 74 -118 c176 -278
296 -476 458 -753 95 -162 192 -327 215 -365 53 -87 279 -474 313 -535 14 -25
70 -119 125 -210 55 -91 108 -180 118 -198 30 -52 197 -299 265 -392 123 -167
284 -301 412 -340 156 -48 277 -4 332 122 32 73 33 204 2 303 -55 173 -160
334 -429 658 -45 54 -108 128 -140 164 -32 37 -74 85 -93 108 -55 62 -304 339
-311 345 -3 3 -27 30 -54 60 -26 30 -78 89 -115 130 -37 41 -145 163 -240 270
-96 107 -196 220 -224 250 -65 71 -108 119 -176 200 -30 35 -65 76 -76 90
-124 145 -211 249 -267 318 l-67 82 97 143 c216 318 499 714 547 765 94 101
207 142 489 178 148 19 234 37 307 66 281 110 520 323 753 671 217 323 355
622 423 920 2 9 7 27 10 40 3 12 8 76 11 142 8 192 -25 330 -108 454 -58 87
-149 158 -249 195 -42 15 -196 46 -202 40z"/>
</g>
</svg>
