<?xml version="1.0" standalone="no"?>
<!DOCTYPE svg PUBLIC "-//W3C//DTD SVG 20010904//EN"
 "http://www.w3.org/TR/2001/REC-SVG-20010904/DTD/svg10.dtd">
<svg version="1.0" xmlns="http://www.w3.org/2000/svg"
 width="512.000000pt" height="512.000000pt" viewBox="0 0 512.000000 512.000000"
 preserveAspectRatio="xMidYMid meet">
<metadata>
Created by potrace 1.11, written by Peter Selinger 2001-2013
</metadata>
<g transform="translate(0.000000,512.000000) scale(0.100000,-0.100000)"
fill="#000000" stroke="none">
<path d="M658 5110 c-187 -32 -368 -135 -480 -274 -62 -77 -121 -192 -150
-292 l-23 -79 0 -1905 0 -1905 23 -79 c78 -271 277 -470 548 -548 l79 -23
1905 0 1905 0 79 23 c100 29 215 88 292 150 115 93 211 241 256 398 l23 79 0
1905 0 1905 -23 79 c-78 269 -271 464 -542 548 l-75 23 -1885 1 c-1037 1
-1906 -2 -1932 -6z m762 -548 c287 -239 693 -701 772 -878 50 -111 57 -161 61
-414 3 -308 -1 -297 215 -590 46 -63 88 -118 92 -123 6 -7 281 343 351 449 64
97 72 168 35 329 -35 153 -14 354 50 494 92 201 315 480 493 615 81 63 210
137 286 165 156 59 353 6 438 -116 117 -169 98 -407 -58 -728 -146 -301 -335
-525 -525 -624 -100 -51 -153 -67 -292 -86 -207 -28 -238 -46 -356 -208 -103
-140 -291 -414 -298 -431 -3 -7 53 -82 124 -167 124 -148 191 -224 622 -704
431 -480 542 -627 585 -779 47 -162 -34 -297 -169 -282 -175 20 -319 186 -642
741 -317 547 -585 995 -615 1029 -12 14 -158 -219 -509 -814 -256 -434 -294
-496 -363 -598 -141 -208 -216 -286 -326 -338 -185 -88 -336 55 -276 261 51
176 141 291 831 1061 201 224 456 516 513 587 12 15 9 25 -30 80 -101 146
-240 326 -275 357 -50 43 -156 92 -264 119 -352 91 -425 155 -700 611 -92 153
-316 595 -345 683 -19 57 -19 59 -1 73 13 9 24 10 37 4 31 -17 139 -171 269
-382 213 -346 428 -632 518 -689 53 -34 112 -40 112 -11 0 42 -170 332 -368
627 -207 307 -312 484 -312 523 0 69 57 13 279 -274 373 -480 590 -734 628
-734 17 0 43 59 43 98 0 100 -143 314 -479 717 -299 358 -318 384 -300 417 5
10 17 18 27 18 9 0 64 -39 122 -88z"/>
</g>
</svg>
